<svg width="79" height="23" viewBox="0 0 79 23" fill="none" xmlns="http://www.w3.org/2000/svg">
<path d="M42.5432 7.16841H47.1632C47.2402 7.16841 47.314 7.13733 47.3664 7.08448L48.2036 6.24205C48.259 6.1861 48.2897 6.11149 48.2897 6.03378V3.19874C48.2897 3.12103 48.259 3.04642 48.2066 2.99357L45.3565 0.0901491C45.3011 0.0341945 45.2272 0.00310859 45.1502 0.00310859H35.3316C35.2547 0.00310859 35.1808 0.0341945 35.1254 0.0901491L32.2752 2.99357C32.2198 3.04953 32.1921 3.12103 32.1921 3.19874V1.14707C32.1921 1.06936 32.1614 0.994749 32.109 0.941903L31.2718 0.0870406C31.2164 0.0310859 31.1426 0 31.0656 0H27.2859C27.209 0 27.1351 0.0310859 27.0797 0.0870406L26.2425 0.941903C26.1871 0.997858 26.1594 1.06936 26.1594 1.14707V2.95627C26.1594 3.03399 26.1286 3.10859 26.0763 3.16144L24.3526 4.91779C24.2387 5.03281 24.0541 5.03281 23.9433 4.91779L22.2196 3.16144C22.1673 3.10548 22.1365 3.03399 22.1365 2.95627V1.14707C22.1365 1.06936 22.1057 0.994749 22.0534 0.941903L21.2162 0.0901491C21.1577 0.0341945 21.0839 0.00310859 21.0069 0.00310859H17.2241C17.1472 0.00310859 17.0733 0.0341945 17.0179 0.0901491L16.1807 0.941903C16.1284 0.997858 16.0976 1.06936 16.0976 1.14707C16.0976 1.06936 16.0668 0.997858 16.0145 0.941903L15.1773 0.0870406C15.1219 0.0341945 15.048 0.00310859 14.9711 0.00310859H11.1883C11.1113 0.00310859 11.0375 0.0341945 10.9821 0.0901491L10.1449 0.945012C10.0926 1.00097 10.0618 1.07246 10.0618 1.15018V4.42353C10.0618 4.68465 9.74782 4.81521 9.56623 4.62869L5.11553 0.0870406C5.06013 0.0341945 4.98626 0.00310859 4.90931 0.00310859H1.12652C1.04958 0.00310859 0.975706 0.0341945 0.920303 0.0901491L0.0831043 0.941903C0.0307794 0.997858 0 1.06936 0 1.14707V15.2632C0 15.3409 0.0307794 15.4155 0.0831043 15.4684L0.920303 16.3232C0.975706 16.3792 1.04958 16.4103 1.12652 16.4103H4.90931C4.98626 16.4103 5.06013 16.3792 5.11553 16.3232L5.95273 15.4684C6.00813 15.4124 6.03583 15.3409 6.03583 15.2632V11.9898C6.03583 11.7287 6.34978 11.5982 6.53138 11.7847L10.9821 16.3232C11.0375 16.3792 11.1113 16.4103 11.1883 16.4103H14.9711C15.048 16.4103 15.1219 16.3792 15.1773 16.3232L16.0145 15.4684C16.0668 15.4124 16.0976 15.3409 16.0976 15.2632V7.09692H16.1038C16.113 7.15909 16.1345 7.21815 16.1807 7.26478L21.0438 12.2199C21.0962 12.2758 21.127 12.3473 21.127 12.425V15.2601C21.127 15.3378 21.1577 15.4124 21.2101 15.4652L22.0473 16.3201C22.1027 16.3761 22.1765 16.4071 22.2535 16.4071H26.0363C26.1132 16.4071 26.1871 16.3761 26.2425 16.3201L27.0797 15.4652C27.132 15.4093 27.1628 15.3378 27.1628 15.2601V12.425C27.1628 12.3473 27.1936 12.2727 27.2459 12.2199L32.109 7.26478C32.1614 7.20883 32.1921 7.13733 32.1921 7.05961V13.2115C32.1921 13.2892 32.2229 13.3638 32.2752 13.4167L35.1254 16.3201C35.1808 16.3761 35.2547 16.4071 35.3316 16.4071H45.1502C45.2272 16.4071 45.3011 16.3761 45.3565 16.3201L48.2066 13.4167C48.259 13.3607 48.2897 13.2892 48.2897 13.2115V10.3765C48.2897 10.2988 48.259 10.2273 48.2066 10.1713L47.3694 9.31645C47.314 9.2605 47.2402 9.22941 47.1632 9.22941H42.5432C42.3832 9.22941 42.2539 9.35997 42.2539 9.52162V9.96304C42.2539 10.1247 42.1246 10.2552 41.9646 10.2552H38.5173C38.3572 10.2552 38.228 10.1247 38.228 9.96304V6.44722C38.228 6.28557 38.3572 6.15501 38.5173 6.15501H41.9646C42.1246 6.15501 42.2539 6.28557 42.2539 6.44722V6.87621C42.2539 7.03474 42.3832 7.16841 42.5432 7.16841Z" fill="white"/>
<path d="M63.3803 15.5053H58.6854C58.0629 15.5053 57.4658 15.251 57.0256 14.7984C56.5853 14.3459 56.338 13.732 56.338 13.092V3.43891C56.338 2.79887 56.5853 2.18504 57.0256 1.73247C57.4658 1.27989 58.0629 1.02563 58.6854 1.02563H75.1173C75.7399 1.02563 76.337 1.27989 76.7772 1.73247C77.2174 2.18504 77.4648 2.79887 77.4648 3.43891V13.092C77.4648 13.732 77.2174 14.3459 76.7772 14.7984C76.337 15.251 75.7399 15.5053 75.1173 15.5053H69.2488L63.3803 21.5385V15.5053Z" fill="white"/>
<path d="M62.2066 8.26545H62.2183M66.9014 8.26545H66.9131M71.5962 8.26545H71.608M63.3803 15.5053H58.6854C58.0629 15.5053 57.4658 15.251 57.0256 14.7984C56.5853 14.3459 56.338 13.732 56.338 13.092V3.43891C56.338 2.79887 56.5853 2.18504 57.0256 1.73247C57.4658 1.27989 58.0629 1.02563 58.6854 1.02563H75.1173C75.7399 1.02563 76.337 1.27989 76.7772 1.73247C77.2174 2.18504 77.4648 2.79887 77.4648 3.43891V13.092C77.4648 13.732 77.2174 14.3459 76.7772 14.7984C76.337 15.251 75.7399 15.5053 75.1173 15.5053H69.2488L63.3803 21.5385V15.5053Z" stroke="white" stroke-width="1.76" stroke-linecap="round" stroke-linejoin="round"/>
<ellipse cx="61.3682" cy="8.20515" rx="2.01207" ry="2.05128" fill="#162E51"/>
<ellipse cx="67.4044" cy="8.20515" rx="2.01207" ry="2.05128" fill="#162E51"/>
<ellipse cx="73.4406" cy="8.20515" rx="2.01207" ry="2.05128" fill="#162E51"/>
</svg>
